<svg width="52" height="47" viewBox="0 0 52 47" fill="none" xmlns="http://www.w3.org/2000/svg">
    <g filter="url(#filter0_dd_9167_6975)">
        <path d="M5 3.0672C5 3.03009 5.03043 3 5.06796 3H8.87379C8.91132 3 8.94175 3.03009 8.94175 3.0672V6.83065C8.94175 6.86776 8.91132 6.89785 8.87379 6.89785H5.06796C5.03043 6.89785 5 6.86776 5 6.83065V3.0672Z" fill="#111111"/>
        <path d="M5 19.8683C5 19.8312 5.03043 19.8011 5.06796 19.8011H8.87379C8.91132 19.8011 8.94175 19.8312 8.94175 19.8683V23.6317C8.94175 23.6688 8.91132 23.6989 8.87379 23.6989H5.06796C5.03043 23.6989 5 23.6688 5 23.6317V19.8683Z" fill="#111111"/>
        <path d="M5 36.6694C5 36.6322 5.03043 36.6022 5.06796 36.6022H8.87379C8.91132 36.6022 8.94175 36.6322 8.94175 36.6694V40.4328C8.94175 40.4699 8.91132 40.5 8.87379 40.5H5.06796C5.03043 40.5 5 40.4699 5 40.4328V36.6694Z" fill="#111111"/>
        <path d="M24.0291 11.6022C24.0291 11.565 24.0596 11.5349 24.0971 11.5349H27.9029C27.9404 11.5349 27.9709 11.565 27.9709 11.6022V15.3656C27.9709 15.4027 27.9404 15.4328 27.9029 15.4328H24.0971C24.0596 15.4328 24.0291 15.4027 24.0291 15.3656V11.6022Z" fill="#111111"/>
        <path d="M43.0583 19.8683C43.0583 19.8312 43.0887 19.8011 43.1262 19.8011H46.932C46.9696 19.8011 47 19.8312 47 19.8683V23.6317C47 23.6688 46.9696 23.6989 46.932 23.6989H43.1262C43.0887 23.6989 43.0583 23.6688 43.0583 23.6317V19.8683Z" fill="#111111"/>
        <path d="M24.0291 28.4032C24.0291 28.3661 24.0596 28.336 24.0971 28.336H27.9029C27.9404 28.336 27.9709 28.3661 27.9709 28.4032V32.1667C27.9709 32.2038 27.9404 32.2339 27.9029 32.2339H24.0971C24.0596 32.2339 24.0291 32.2038 24.0291 32.1667V28.4032Z" fill="#111111"/>
    </g>
    <defs>
        <filter id="filter0_dd_9167_6975" x="0.5" y="0" width="51" height="46.5" filterUnits="userSpaceOnUse" color-interpolation-filters="sRGB">
            <feFlood flood-opacity="0" result="BackgroundImageFix"/>
            <feColorMatrix in="SourceAlpha" type="matrix" values="0 0 0 0 0 0 0 0 0 0 0 0 0 0 0 0 0 0 127 0" result="hardAlpha"/>
            <feOffset dy="1.5"/>
            <feGaussianBlur stdDeviation="1.5"/>
            <feColorMatrix type="matrix" values="0 0 0 0 0.0627451 0 0 0 0 0.0941176 0 0 0 0 0.156863 0 0 0 0.06 0"/>
            <feBlend mode="normal" in2="BackgroundImageFix" result="effect1_dropShadow_9167_6975"/>
            <feColorMatrix in="SourceAlpha" type="matrix" values="0 0 0 0 0 0 0 0 0 0 0 0 0 0 0 0 0 0 127 0" result="hardAlpha"/>
            <feOffset dy="1.5"/>
            <feGaussianBlur stdDeviation="2.25"/>
            <feColorMatrix type="matrix" values="0 0 0 0 0.0627451 0 0 0 0 0.0941176 0 0 0 0 0.156863 0 0 0 0.1 0"/>
            <feBlend mode="normal" in2="effect1_dropShadow_9167_6975" result="effect2_dropShadow_9167_6975"/>
            <feBlend mode="normal" in="SourceGraphic" in2="effect2_dropShadow_9167_6975" result="shape"/>
        </filter>
    </defs>
</svg>
